<?xml version="1.0" encoding="utf-8"?>
<!-- Generator: Adobe Illustrator 22.1.0, SVG Export Plug-In . SVG Version: 6.00 Build 0)  -->
<svg version="1.1" id="レイヤー_1" xmlns="http://www.w3.org/2000/svg" xmlns:xlink="http://www.w3.org/1999/xlink" x="0px"
	 y="0px" viewBox="0 0 120 15" style="enable-background:new 0 0 120 15;" xml:space="preserve">
<style type="text/css">
	.st0{fill:#040000;}
</style>
<g>
	<path class="st0" d="M10.4,7.5c0,2.9-1.6,5-4.3,5c-2.7,0-4.3-2.1-4.3-5c0-2.9,1.6-5,4.3-5C8.8,2.5,10.4,4.6,10.4,7.5z M12.2,7.5
		c0-2.6-1.4-6.4-6-6.4c-4.6,0-6,3.8-6,6.4c0,2.6,1.4,6.5,6,6.5C10.8,13.9,12.2,10.1,12.2,7.5z"/>
	<path class="st0" d="M23.5,13.9h-1.7L18.6,1.7h1.8l2.3,10h0l2.7-10h1.8l2.7,10h0l2.3-10h1.8l-3.2,12.2h-1.7L26.3,3.8h0L23.5,13.9z"
		/>
	<path class="st0" d="M49.8,1.7h1.6v12.2h-1.9l-6.2-9.9h0v9.9h-1.6V1.7h2l6.1,9.9h0V1.7z"/>
	<path class="st0" d="M61.7,3.1h3.1c2.3,0,3.7,1.6,3.7,4.6c0,3.1-1.4,4.8-3.5,4.8h-3.2V3.1z M60,13.9h4.9c4,0,5.2-3.6,5.2-6.3
		c0-3.5-2-5.9-5.2-5.9h-5V13.9z"/>
	<path class="st0" d="M80,8.9l2-5.4h0l1.8,5.4H80z M84.4,10.4l1.2,3.6h1.8L82.9,1.7h-1.9l-4.6,12.2h1.7l1.3-3.6H84.4z"/>
	<path class="st0" d="M98.4,13.9h-1.7V9l-4.6-7.3H94l3.5,5.9l3.5-5.9h1.9L98.4,9V13.9z"/>
	<path class="st0" d="M117.9,5c-0.1-1.9-1.7-2.5-3-2.5c-1,0-2.8,0.3-2.8,2.1c0,1,0.7,1.4,1.5,1.6L117,7c1.6,0.4,2.8,1.3,2.8,3.3
		c0,2.9-2.7,3.7-4.8,3.7c-2.3,0-3.2-0.7-3.7-1.2c-1-0.9-1.2-2-1.2-3.1h1.6c0,2.2,1.8,2.9,3.4,2.9c1.2,0,3.2-0.3,3.2-2.1
		c0-1.3-0.6-1.7-2.6-2.2l-2.5-0.6c-0.8-0.2-2.6-0.8-2.6-2.9c0-1.9,1.2-3.8,4.2-3.8c4.3,0,4.7,2.6,4.8,3.9H117.9z"/>
</g>
</svg>
